<?xml version="1.0" encoding="UTF-8"?>
<svg id="Logos" xmlns="http://www.w3.org/2000/svg" viewBox="0 0 16 16">
  <defs>
    <style>
      .cls-1 {
        fill: #6e7072;
      }

      .cls-1, .cls-2, .cls-3 {
        stroke-width: 0px;
      }

      .cls-2 {
        fill: #000;
      }

      .cls-3 {
        fill: #e36525;
      }
    </style>
  </defs>
  <polygon class="cls-1" points="12.72 10.32 12.64 13.52 14.13 8.6 12.72 10.32"/>
  <polygon class="cls-3" points="10.94 5.01 11.6 10.31 12.47 7.72 10.94 5.01"/>
  <polygon class="cls-3" points="2.64 9.03 4.56 9.32 3.03 10.23 2.64 9.03"/>
  <polygon class="cls-1" points="4.74 13.53 4.4 10.88 6.66 9.53 4.74 13.53"/>
  <polygon class="cls-1" points="8.53 10.62 8.64 13.52 10.89 8.94 8.53 10.62"/>
  <polygon class="cls-3" points="6.67 7.09 6.75 7.48 6.83 7.83 7.3 10.09 9.04 8.28 6.67 7.09"/>
  <g>
    <polygon class="cls-2" points="7.16 11.08 7.66 13.53 8.01 13.53 7.43 10.72 7.16 11.08"/>
    <polygon class="cls-2" points="11.92 2.47 11.47 2.47 14.16 7.25 14.16 6.44 11.92 2.47"/>
    <polygon class="cls-2" points="11.41 11.65 11.63 13.53 11.98 13.53 11.65 10.86 11.41 11.65"/>
    <polygon class="cls-2" points="2.95 11.09 3.75 13.53 4.12 13.53 3.23 10.84 2.95 11.09"/>
    <polygon class="cls-2" points="1.84 6.78 1.98 7.21 6.31 7.86 6.22 7.44 1.84 6.78"/>
    <polygon class="cls-2" points="6.13 4.44 6.24 4.94 10.68 7.18 10.62 6.71 6.13 4.44"/>
  </g>
</svg>