<?xml version="1.0" encoding="UTF-8"?>
<svg id="Logos" xmlns="http://www.w3.org/2000/svg" viewBox="0 0 428.23 125.52">
  <defs>
    <style>
      .cls-1 {
        fill: #6e7072;
      }

      .cls-1, .cls-2, .cls-3 {
        stroke-width: 0px;
      }

      .cls-2 {
        fill: #000;
      }

      .cls-3 {
        fill: #e36525;
      }
    </style>
  </defs>
  <g>
    <g>
      <path class="cls-2" d="M140,65.24V30.53h6.97l9.83,29.34,9.83-29.34h6.97v34.71h-3.86v-30.6h-.7l-10.08,29.34h-4.31l-10.08-29.34h-.7v30.6h-3.86Z"/>
      <path class="cls-2" d="M180.13,52.65c0-4.58.82-7.89,2.46-9.93,1.64-2.04,4.41-3.06,8.3-3.06s6.65,1.02,8.28,3.06c1.62,2.04,2.43,5.35,2.43,9.93s-.77,7.91-2.31,9.98c-1.54,2.07-4.35,3.11-8.43,3.11s-6.89-1.04-8.43-3.11c-1.54-2.07-2.31-5.4-2.31-9.98ZM183.99,52.58c0,3.66.44,6.23,1.33,7.7.89,1.47,2.74,2.21,5.57,2.21s4.67-.73,5.54-2.18c.87-1.45,1.3-4.02,1.3-7.7s-.49-6.21-1.45-7.6c-.97-1.39-2.77-2.08-5.39-2.08s-4.43.69-5.42,2.08c-.99,1.39-1.48,3.91-1.48,7.57Z"/>
      <path class="cls-2" d="M204.91,40.16h4.01l5.87,21.82h1.86l6.07-21.82h3.86l-7.07,25.08h-7.52l-7.07-25.08Z"/>
      <path class="cls-2" d="M247.99,62.13l1.45-.15.1,2.96c-3.81.53-7.07.8-9.78.8-3.61,0-6.17-1.04-7.67-3.13-1.5-2.09-2.26-5.34-2.26-9.76,0-8.79,3.49-13.19,10.48-13.19,3.38,0,5.9.95,7.57,2.83,1.67,1.89,2.51,4.86,2.51,8.9l-.2,2.86h-16.55c0,2.78.5,4.83,1.5,6.17,1,1.34,2.75,2.01,5.24,2.01s5.02-.1,7.6-.3ZM246.64,51.25c0-3.08-.49-5.25-1.48-6.52-.99-1.27-2.59-1.91-4.82-1.91s-3.9.67-5.02,2.01c-1.12,1.34-1.7,3.48-1.73,6.42h13.04Z"/>
      <path class="cls-2" d="M267.96,30.53h12.59c3.44,0,6.03.71,7.75,2.13,1.72,1.42,2.58,3.65,2.58,6.7,0,2.17-.38,3.87-1.13,5.09-.75,1.22-1.86,2.18-3.34,2.88,3.68,1.27,5.52,4,5.52,8.18,0,3.48-.92,5.97-2.76,7.47-1.84,1.5-4.5,2.26-7.98,2.26h-13.24V30.53ZM280.39,33.94h-8.58v11.99h8.93c2.14,0,3.7-.51,4.69-1.53.99-1.02,1.48-2.56,1.48-4.61s-.53-3.54-1.58-4.46c-1.05-.92-2.7-1.38-4.94-1.38ZM280.8,49.29h-8.98v12.54h9.23c2.27,0,4-.48,5.19-1.43,1.19-.95,1.78-2.63,1.78-5.04,0-1.27-.24-2.34-.73-3.21-.49-.87-1.13-1.49-1.93-1.86-1.47-.67-2.99-1-4.56-1Z"/>
      <path class="cls-2" d="M315.25,62.13l1.45-.15.1,2.96c-3.81.53-7.07.8-9.78.8-3.61,0-6.17-1.04-7.67-3.13-1.5-2.09-2.26-5.34-2.26-9.76,0-8.79,3.49-13.19,10.48-13.19,3.38,0,5.9.95,7.57,2.83,1.67,1.89,2.51,4.86,2.51,8.9l-.2,2.86h-16.55c0,2.78.5,4.83,1.5,6.17,1,1.34,2.75,2.01,5.24,2.01s5.02-.1,7.6-.3ZM313.9,51.25c0-3.08-.49-5.25-1.48-6.52-.99-1.27-2.59-1.91-4.82-1.91s-3.9.67-5.02,2.01c-1.12,1.34-1.7,3.48-1.73,6.42h13.04Z"/>
      <path class="cls-2" d="M336.37,43.42h-7.98v11.99c0,2.88.21,4.76.63,5.67.42.9,1.41,1.35,2.98,1.35l4.46-.3.25,3.11c-2.24.37-3.95.55-5.12.55-2.61,0-4.41-.63-5.42-1.91-1-1.27-1.5-3.69-1.5-7.27v-13.19h-3.56v-3.26h3.56v-7.67h3.71v7.67h7.98v3.26Z"/>
      <path class="cls-2" d="M353.98,43.42h-7.98v11.99c0,2.88.21,4.76.63,5.67.42.9,1.41,1.35,2.98,1.35l4.46-.3.25,3.11c-2.24.37-3.95.55-5.12.55-2.61,0-4.41-.63-5.42-1.91-1-1.27-1.5-3.69-1.5-7.27v-13.19h-3.56v-3.26h3.56v-7.67h3.71v7.67h7.98v3.26Z"/>
      <path class="cls-2" d="M375.64,62.13l1.45-.15.1,2.96c-3.81.53-7.07.8-9.78.8-3.61,0-6.17-1.04-7.67-3.13-1.5-2.09-2.26-5.34-2.26-9.76,0-8.79,3.49-13.19,10.48-13.19,3.38,0,5.9.95,7.57,2.83,1.67,1.89,2.51,4.86,2.51,8.9l-.2,2.86h-16.55c0,2.78.5,4.83,1.5,6.17,1,1.34,2.75,2.01,5.24,2.01s5.02-.1,7.6-.3ZM374.29,51.25c0-3.08-.49-5.25-1.48-6.52-.99-1.27-2.59-1.91-4.82-1.91s-3.9.67-5.02,2.01c-1.12,1.34-1.7,3.48-1.73,6.42h13.04Z"/>
      <path class="cls-2" d="M383.92,65.24v-25.08h3.71v3.41c2.91-2.01,5.97-3.33,9.18-3.96v3.81c-1.4.27-2.87.69-4.39,1.25-1.52.57-2.68,1.07-3.49,1.5l-1.25.65v18.41h-3.76Z"/>
    </g>
    <g>
      <polygon class="cls-1" points="110.19 73.33 109.55 97.56 120.82 60.31 110.19 73.33"/>
      <polygon class="cls-3" points="96.73 33.14 101.68 73.28 108.26 53.63 96.73 33.14"/>
      <polygon class="cls-3" points="33.91 63.58 48.48 65.74 36.9 72.61 33.91 63.58"/>
      <polygon class="cls-1" points="49.85 97.59 47.22 77.59 64.32 67.35 49.85 97.59"/>
      <polygon class="cls-1" points="78.5 75.58 79.3 97.56 96.37 62.91 78.5 75.58"/>
      <polygon class="cls-3" points="64.42 48.9 65.05 51.88 65.6 54.5 69.21 71.55 82.35 57.92 64.42 48.9"/>
      <g>
        <polygon class="cls-2" points="68.1 79.04 71.91 97.59 74.56 97.59 70.19 76.33 68.1 79.04"/>
        <polygon class="cls-2" points="104.12 13.93 100.7 13.93 121.07 50.07 121.07 44 104.12 13.93"/>
        <polygon class="cls-2" points="100.24 83.42 101.96 97.58 104.57 97.58 102.11 77.38 100.24 83.42"/>
        <polygon class="cls-2" points="36.3 79.14 42.36 97.61 45.09 97.6 38.4 77.22 36.3 79.14"/>
        <polygon class="cls-2" points="27.88 46.58 28.94 49.78 61.66 54.68 60.99 51.54 27.88 46.58"/>
        <polygon class="cls-2" points="60.36 28.88 61.14 32.65 94.71 49.61 94.26 46.01 60.36 28.88"/>
      </g>
    </g>
  </g>
  <g>
    <path class="cls-2" d="M134.47,97.36h-1.42v-12.02h1.42v.89c1.22-.75,2.52-1.13,3.89-1.13s2.36.42,2.93,1.27c.58-.35,1.28-.65,2.1-.9.83-.25,1.57-.37,2.22-.37,1.6,0,2.67.42,3.21,1.26.54.84.81,2.4.81,4.68v6.32h-1.42v-6.25c0-1.84-.17-3.09-.52-3.74-.35-.65-1.09-.97-2.25-.97-.58,0-1.17.08-1.78.25s-1.07.34-1.39.52l-.48.24c.24.61.36,1.84.36,3.7v6.25h-1.44v-6.2c0-1.88-.17-3.14-.52-3.79-.35-.65-1.09-.97-2.22-.97-.56,0-1.13.08-1.72.25-.59.17-1.03.34-1.33.52l-.46.24v9.95Z"/>
    <path class="cls-2" d="M152.62,91.33c0-2.26.38-3.86,1.14-4.81.76-.95,2.06-1.42,3.89-1.42s3.13.47,3.89,1.42c.76.95,1.14,2.55,1.14,4.81s-.35,3.87-1.05,4.83c-.7.96-2.02,1.44-3.98,1.44s-3.29-.48-3.99-1.44c-.71-.96-1.06-2.57-1.06-4.83ZM154.11,91.29c0,1.9.22,3.21.66,3.94.44.73,1.4,1.09,2.88,1.09s2.45-.37,2.9-1.11c.45-.74.67-2.05.67-3.93s-.25-3.17-.76-3.87c-.51-.7-1.44-1.05-2.8-1.05s-2.3.35-2.8,1.03c-.5.69-.76,1.98-.76,3.88Z"/>
    <path class="cls-2" d="M164.43,85.34h1.59l3.01,10.77h.96l3.13-10.77h1.49l-3.51,12.02h-3.15l-3.51-12.02Z"/>
    <path class="cls-2" d="M184.79,96.16l.72-.07.05,1.18c-1.81.22-3.34.34-4.59.34-1.73-.02-2.94-.53-3.63-1.54-.69-1.01-1.03-2.56-1.03-4.66,0-4.2,1.65-6.3,4.95-6.3,1.59,0,2.77.45,3.56,1.36.79.91,1.18,2.35,1.18,4.34l-.05,1.15h-8.17c0,1.47.25,2.57.76,3.28.51.71,1.37,1.07,2.6,1.07s2.45-.05,3.67-.14ZM177.77,90.75h6.78c0-1.59-.26-2.72-.78-3.39-.52-.67-1.35-1.01-2.5-1.01s-2.02.35-2.61,1.05c-.59.7-.89,1.82-.89,3.35Z"/>
    <path class="cls-2" d="M190.37,97.36h-1.42v-12.02h1.42v.89c1.22-.75,2.52-1.13,3.89-1.13s2.36.42,2.93,1.27c.58-.35,1.28-.65,2.1-.9.83-.25,1.57-.37,2.22-.37,1.6,0,2.67.42,3.21,1.26.54.84.81,2.4.81,4.68v6.32h-1.42v-6.25c0-1.84-.17-3.09-.52-3.74-.35-.65-1.09-.97-2.25-.97-.58,0-1.17.08-1.78.25s-1.07.34-1.39.52l-.48.24c.24.61.36,1.84.36,3.7v6.25h-1.44v-6.2c0-1.88-.17-3.14-.52-3.79-.35-.65-1.09-.97-2.22-.97-.56,0-1.13.08-1.72.25-.59.17-1.03.34-1.33.52l-.46.24v9.95Z"/>
    <path class="cls-2" d="M216.98,96.16l.72-.07.05,1.18c-1.81.22-3.34.34-4.59.34-1.73-.02-2.94-.53-3.63-1.54-.69-1.01-1.03-2.56-1.03-4.66,0-4.2,1.65-6.3,4.95-6.3,1.59,0,2.77.45,3.56,1.36.79.91,1.18,2.35,1.18,4.34l-.05,1.15h-8.17c0,1.47.25,2.57.76,3.28.51.71,1.37,1.07,2.6,1.07s2.45-.05,3.67-.14ZM209.96,90.75h6.78c0-1.59-.26-2.72-.78-3.39-.52-.67-1.35-1.01-2.5-1.01s-2.02.35-2.61,1.05c-.59.7-.89,1.82-.89,3.35Z"/>
    <path class="cls-2" d="M222.56,97.36h-1.42v-12.02h1.42v.89c1.35-.75,2.65-1.13,3.92-1.13,1.6,0,2.67.42,3.21,1.27.54.85.81,2.4.81,4.66v6.32h-1.44v-6.25c0-1.84-.18-3.09-.53-3.74-.35-.65-1.11-.97-2.26-.97-.56,0-1.15.08-1.77.25-.62.17-1.09.34-1.43.52l-.5.24v9.95Z"/>
    <path class="cls-2" d="M239.94,86.62h-4.02v5.94c0,1.56.11,2.57.34,3.05.22.48.75.72,1.59.72l2.21-.17.1,1.23c-1.06.16-1.87.24-2.43.24-1.22,0-2.06-.3-2.54-.9-.47-.6-.71-1.75-.71-3.45v-6.66h-1.78v-1.27h1.78v-3.77h1.44v3.77h4.02v1.27Z"/>
    <path class="cls-2" d="M252.66,85.1c1.6,0,2.72.47,3.34,1.39.63.93.94,2.54.94,4.82s-.4,3.9-1.19,4.86c-.79.95-2.27,1.43-4.44,1.43-.9,0-1.97-.06-3.22-.19l-.63-.05v-17.36h1.44v5.99c1.25-.59,2.5-.89,3.75-.89ZM248.91,96.16c1.12.1,2.02.14,2.7.14s1.29-.1,1.84-.29.97-.52,1.26-.97c.3-.46.49-.98.59-1.56.1-.59.14-1.36.14-2.32,0-1.7-.2-2.92-.61-3.65-.41-.74-1.17-1.11-2.3-1.11-.54,0-1.12.07-1.73.2-.61.14-1.08.28-1.42.42l-.48.19v8.94Z"/>
    <path class="cls-2" d="M268.29,88.93v6.44c.06.59.59.95,1.56,1.06l-.07,1.15c-1.23,0-2.14-.32-2.72-.96-1.51.66-3.01.99-4.52.99-1.07,0-1.89-.31-2.45-.93-.56-.62-.84-1.5-.84-2.64s.28-2,.85-2.55c.57-.55,1.46-.89,2.68-1.02l4.09-.41v-1.13c0-.9-.2-1.54-.59-1.94-.39-.39-.92-.59-1.57-.59-1.03,0-2.36.1-3.99.29l-.75.07-.07-1.15c1.76-.34,3.31-.5,4.63-.5s2.28.31,2.87.94c.59.63.89,1.59.89,2.88ZM260.74,93.95c0,1.62.66,2.43,2,2.43.58,0,1.21-.07,1.9-.2.69-.14,1.23-.28,1.64-.42l.6-.22v-4.35l-3.92.41c-.79.06-1.35.29-1.69.67-.35.38-.52.95-.52,1.68Z"/>
    <path class="cls-2" d="M275.65,86.43c-1.89,0-2.84.68-2.84,2.04,0,.63.21,1.07.63,1.32.42.26,1.36.51,2.82.76,1.47.25,2.5.59,3.1,1.02.6.43.9,1.26.9,2.49s-.39,2.12-1.18,2.69c-.79.57-1.94.85-3.46.85-.88,0-2.02-.11-3.41-.34l-.7-.1.1-1.27c1.79.27,3.17.41,4.14.41s1.71-.17,2.25-.5c.54-.34.81-.91.81-1.71s-.22-1.33-.66-1.6-1.39-.51-2.84-.73c-1.45-.22-2.47-.54-3.07-.96-.59-.42-.89-1.2-.89-2.36s.41-2,1.23-2.52c.82-.53,1.83-.79,3.03-.79.96,0,2.16.1,3.61.31l.65.1-.05,1.27c-1.72-.26-3.1-.38-4.16-.38Z"/>
    <path class="cls-2" d="M291.13,96.16l.72-.07.05,1.18c-1.81.22-3.34.34-4.59.34-1.73-.02-2.94-.53-3.63-1.54-.69-1.01-1.03-2.56-1.03-4.66,0-4.2,1.65-6.3,4.95-6.3,1.59,0,2.77.45,3.56,1.36.79.91,1.18,2.35,1.18,4.34l-.05,1.15h-8.17c0,1.47.25,2.57.76,3.28.51.71,1.37,1.07,2.6,1.07s2.45-.05,3.67-.14ZM284.11,90.75h6.78c0-1.59-.26-2.72-.78-3.39-.52-.67-1.35-1.01-2.5-1.01s-2.02.35-2.61,1.05c-.59.7-.89,1.82-.89,3.35Z"/>
    <path class="cls-2" d="M304.28,80.01v17.36h-1.44v-.89c-1.27.75-2.55,1.13-3.85,1.13-.59,0-1.11-.07-1.54-.2s-.87-.4-1.32-.81c-.91-.82-1.37-2.42-1.37-4.8s.38-4.09,1.15-5.13c.77-1.04,2.07-1.56,3.89-1.56.71,0,1.71.1,3.03.31v-5.41h1.44ZM298.09,96.14c.3.11.68.17,1.15.17s1.02-.09,1.63-.26c.62-.18,1.1-.34,1.45-.5l.5-.26v-8.61c-1.28-.19-2.28-.29-2.98-.29-1.36,0-2.3.42-2.82,1.25-.52.83-.78,2.12-.78,3.87,0,2.05.31,3.39.94,4.02.3.3.6.51.9.63Z"/>
    <path class="cls-2" d="M314.57,97.36h-1.42v-12.02h1.42v.89c1.22-.75,2.52-1.13,3.89-1.13s2.36.42,2.93,1.27c.58-.35,1.28-.65,2.1-.9.83-.25,1.57-.37,2.22-.37,1.6,0,2.67.42,3.21,1.26.54.84.81,2.4.81,4.68v6.32h-1.42v-6.25c0-1.84-.17-3.09-.52-3.74-.35-.65-1.09-.97-2.25-.97-.58,0-1.17.08-1.78.25s-1.07.34-1.39.52l-.48.24c.24.61.36,1.84.36,3.7v6.25h-1.44v-6.2c0-1.88-.17-3.14-.52-3.79-.35-.65-1.09-.97-2.22-.97-.56,0-1.13.08-1.72.25-.59.17-1.03.34-1.33.52l-.46.24v9.95Z"/>
    <path class="cls-2" d="M341.18,96.16l.72-.07.05,1.18c-1.81.22-3.34.34-4.59.34-1.73-.02-2.94-.53-3.63-1.54-.69-1.01-1.03-2.56-1.03-4.66,0-4.2,1.65-6.3,4.95-6.3,1.59,0,2.77.45,3.56,1.36.79.91,1.18,2.35,1.18,4.34l-.05,1.15h-8.17c0,1.47.25,2.57.76,3.28.51.71,1.37,1.07,2.6,1.07s2.45-.05,3.67-.14ZM334.16,90.75h6.78c0-1.59-.26-2.72-.78-3.39-.52-.67-1.35-1.01-2.5-1.01s-2.02.35-2.61,1.05c-.59.7-.89,1.82-.89,3.35Z"/>
    <path class="cls-2" d="M354.33,80.01v17.36h-1.44v-.89c-1.27.75-2.55,1.13-3.85,1.13-.59,0-1.11-.07-1.54-.2s-.87-.4-1.32-.81c-.91-.82-1.37-2.42-1.37-4.8s.38-4.09,1.15-5.13c.77-1.04,2.07-1.56,3.89-1.56.71,0,1.71.1,3.03.31v-5.41h1.44ZM348.14,96.14c.3.11.68.17,1.15.17s1.02-.09,1.63-.26c.62-.18,1.1-.34,1.45-.5l.5-.26v-8.61c-1.28-.19-2.28-.29-2.98-.29-1.36,0-2.3.42-2.82,1.25-.52.83-.78,2.12-.78,3.87,0,2.05.31,3.39.94,4.02.3.3.6.51.9.63Z"/>
    <path class="cls-2" d="M357.92,82.34v-1.8h1.42v1.8h-1.42ZM357.92,97.36v-12.02h1.42v12.02h-1.42Z"/>
    <path class="cls-2" d="M367.41,85.1c.72,0,1.58.08,2.57.24l.55.07-.07,1.23c-1.27-.16-2.2-.24-2.81-.24-1.43,0-2.4.35-2.93,1.05s-.79,1.98-.79,3.85.24,3.17.72,3.91c.48.74,1.48,1.11,3.01,1.11l2.86-.22.05,1.23c-1.43.19-2.48.29-3.17.29-1.91,0-3.21-.47-3.91-1.42-.7-.95-1.05-2.57-1.05-4.88s.38-3.92,1.14-4.83c.76-.91,2.04-1.37,3.83-1.37Z"/>
    <path class="cls-2" d="M373.35,82.34v-1.8h1.42v1.8h-1.42ZM373.35,97.36v-12.02h1.42v12.02h-1.42Z"/>
    <path class="cls-2" d="M379.79,97.36h-1.42v-12.02h1.42v.89c1.35-.75,2.65-1.13,3.92-1.13,1.6,0,2.67.42,3.21,1.27.54.85.81,2.4.81,4.66v6.32h-1.44v-6.25c0-1.84-.18-3.09-.53-3.74-.35-.65-1.11-.97-2.26-.97-.56,0-1.15.08-1.77.25-.62.17-1.09.34-1.43.52l-.5.24v9.95Z"/>
    <path class="cls-2" d="M399.15,96.16l.72-.07.05,1.18c-1.81.22-3.34.34-4.59.34-1.73-.02-2.94-.53-3.63-1.54-.69-1.01-1.03-2.56-1.03-4.66,0-4.2,1.65-6.3,4.95-6.3,1.59,0,2.77.45,3.56,1.36.79.91,1.18,2.35,1.18,4.34l-.05,1.15h-8.17c0,1.47.25,2.57.76,3.28.51.71,1.37,1.07,2.6,1.07s2.45-.05,3.67-.14ZM392.13,90.75h6.78c0-1.59-.26-2.72-.78-3.39-.52-.67-1.35-1.01-2.5-1.01s-2.02.35-2.61,1.05c-.59.7-.89,1.82-.89,3.35Z"/>
  </g>
</svg>